# Blender v2.79 (sub 0) OBJ File: 'inter.blend'
# www.blender.org
mtllib inter.mtl
o Cube
v 1.000000 -1.000000 -1.000000
v 1.000000 -1.000000 1.000000
v -1.000000 -1.000000 1.000000
v -1.000000 -1.000000 -1.000000
v 1.000000 1.000000 -0.999999
v 0.999999 1.000000 1.000001
v -1.000000 1.000000 1.000000
v -1.000000 1.000000 -1.000000
v 1.000000 -1.000000 -0.344308
v 1.000000 -1.000000 0.322358
v -1.000000 -1.000000 0.322358
v -1.000000 -1.000000 -0.344309
v 1.000000 1.000000 -0.344308
v 1.000000 1.000000 0.322359
v -1.000000 1.000000 0.322358
v -1.000000 1.000000 -0.344308
v 0.113223 -1.000000 -1.000000
v 0.113222 -1.000000 1.000000
v 0.113223 1.000000 -1.000000
v 0.113222 1.000000 1.000000
v 0.102361 1.501376 -0.654822
v 0.113222 1.000000 0.322359
v 0.113223 -1.000000 -0.344308
v 0.113222 -1.000000 0.322358
vn 0.0000 -1.0000 0.0000
vn 0.0000 1.0000 0.0000
vn 1.0000 0.0000 0.0000
vn -0.0000 -0.0000 1.0000
vn -1.0000 -0.0000 -0.0000
vn 0.0000 0.0000 -1.0000
vn -0.2563 0.8631 -0.4351
vn -0.1727 0.9418 0.2884
vn 0.2133 0.9349 0.2837
vn 0.3126 0.8506 -0.4227
usemtl Material
s off
f 24//1 18//1 3//1 11//1
f 22//2 15//2 7//2 20//2
f 10//3 14//3 6//3 2//3
f 18//4 20//4 7//4 3//4
f 12//5 16//5 8//5 4//5
f 19//6 17//6 4//6 8//6
f 3//5 7//5 15//5 11//5
f 11//5 15//5 16//5 12//5
f 1//3 5//3 13//3 9//3
f 9//3 13//3 14//3 10//3
f 19//7 8//7 16//7 21//7
f 21//8 16//8 15//8 22//8
f 17//1 23//1 12//1 4//1
f 23//1 24//1 11//1 12//1
f 9//1 10//1 24//1 23//1
f 1//1 9//1 23//1 17//1
f 13//9 21//9 22//9 14//9
f 5//10 19//10 21//10 13//10
f 5//6 1//6 17//6 19//6
f 2//4 6//4 20//4 18//4
f 14//2 22//2 20//2 6//2
f 10//1 2//1 18//1 24//1
