# Blender v2.79 (sub 0) OBJ File: 'model.blend'
# www.blender.org
mtllib model.mtl
o Cube
v 0.045576 -0.045576 -0.045576
v 0.045576 -0.045576 0.045576
v -0.045576 -0.045576 0.045576
v -0.053954 -0.073741 -0.046757
v 0.030822 0.045576 -0.030822
v 0.030822 0.045576 0.030822
v -0.030822 0.045576 0.030822
v -0.030822 0.045576 -0.030822
v 0.045576 -0.045576 0.000000
v 0.000000 -0.045576 -0.045576
v 0.045576 0.000000 -0.045576
v 0.000000 -0.045576 0.045576
v 0.045576 0.000000 0.045576
v -0.045576 -0.045576 -0.000000
v -0.045576 0.000000 0.045576
v -0.045576 0.000000 -0.045576
v 0.045576 0.045576 0.000000
v 0.000000 0.045576 -0.045576
v -0.000000 0.045576 0.045576
v -0.045576 0.045576 -0.000000
v 0.000000 0.000000 -0.164141
v -0.045576 0.000000 -0.000000
v -0.000000 0.000000 0.164141
v 0.045576 0.000000 0.000000
v -0.000000 0.045576 0.000000
v 0.000000 -0.045576 -0.000000
v 0.086766 -0.045576 0.022788
v -0.022788 -0.045576 -0.045576
v 0.045576 0.022788 -0.045576
v -0.022788 -0.045576 0.045576
v 0.045576 0.022788 0.045576
v -0.045576 -0.045576 -0.022788
v -0.045576 0.022788 0.045576
v -0.045576 0.022788 -0.045576
v 0.023240 0.045576 0.011620
v -0.011620 0.045576 -0.023240
v -0.011620 0.045576 0.023240
v -0.023240 0.045576 -0.011620
v 0.045576 -0.045576 -0.022788
v 0.022788 -0.045576 -0.045576
v 0.045576 -0.022788 -0.045576
v 0.022788 -0.045576 0.045576
v 0.045576 -0.022788 0.045576
v -0.045576 -0.045576 0.022788
v -0.045576 -0.022788 0.045576
v -0.045576 -0.022788 -0.045576
v 0.023240 0.045576 -0.011620
v 0.011620 0.045576 -0.023240
v 0.011620 0.045576 0.023240
v -0.023240 0.045576 0.011620
v -0.022788 0.000000 -0.098918
v 0.022788 0.000000 -0.077984
v 0.000000 0.022788 -0.045576
v 0.000000 -0.022788 -0.045576
v -0.045576 0.000000 -0.022788
v -0.045576 0.000000 0.022788
v -0.045576 -0.022788 -0.000000
v -0.045576 0.022788 -0.000000
v -0.022788 0.000000 0.098918
v 0.022788 0.000000 0.077984
v -0.000000 -0.022788 0.045576
v -0.000000 0.022788 0.045576
v 0.107445 0.000000 0.022788
v 0.045576 0.000000 -0.022788
v 0.045576 -0.022788 0.000000
v 0.045576 0.022788 0.000000
v -0.000000 0.045576 0.022788
v 0.000000 0.045576 -0.022788
v 0.022788 0.045576 0.000000
v -0.022788 0.045576 0.000000
v -0.022788 -0.045576 -0.000000
v 0.022788 -0.045576 -0.000000
v 0.000000 -0.045576 -0.022788
v 0.000000 -0.045576 0.022788
v 0.022788 -0.045576 0.022788
v 0.022788 -0.045576 -0.022788
v -0.022788 -0.045576 -0.022788
v -0.010578 0.045576 -0.010578
v 0.010578 0.045576 -0.010578
v 0.010578 0.045576 0.010578
v 0.045576 0.022788 -0.022788
v 0.045576 -0.022788 -0.022788
v 0.086766 -0.022788 0.022788
v 0.022788 0.022788 0.045576
v 0.022788 -0.022788 0.045576
v -0.022788 -0.022788 0.045576
v -0.045576 0.022788 0.022788
v -0.045576 -0.022788 0.022788
v -0.045576 -0.022788 -0.022788
v 0.022788 -0.022788 -0.045576
v 0.022788 0.022788 -0.045576
v -0.022788 0.022788 -0.045576
v -0.022788 -0.022788 -0.045576
v -0.045576 0.022788 -0.022788
v -0.022788 0.022788 0.045576
v 0.045576 0.022788 0.022788
v -0.010578 0.045576 0.010578
v -0.022788 -0.045576 0.022788
vn 0.0000 -1.0000 0.0000
vn 0.0000 1.0000 0.0000
vn 0.8063 0.5733 -0.1456
vn 0.1456 0.5733 0.8063
vn -0.8063 0.5733 0.1456
vn 0.0144 0.0144 -0.9998
vn -0.6052 0.6052 -0.5171
vn 0.4794 0.8401 -0.2536
vn 0.0000 0.0000 -1.0000
vn -1.0000 -0.0000 -0.0000
vn -0.7367 0.4782 0.4782
vn -0.6052 -0.6052 0.5171
vn 0.4794 -0.8401 0.2536
vn 0.4782 0.4782 0.7367
vn 0.3978 -0.1805 0.8995
vn 1.0000 0.0000 0.0000
vn 0.7367 0.4782 -0.4782
vn 0.4141 -0.8106 0.4141
vn 0.8063 0.5733 0.1456
vn 0.4841 -0.0000 0.8750
vn 0.4841 0.0000 -0.8750
vn 0.3978 -0.1805 -0.8995
vn 0.4794 0.8401 0.2536
vn 0.5014 0.5014 0.7051
vn -0.1456 0.5733 0.8063
vn 0.0000 -0.0000 1.0000
vn 0.5014 -0.5014 0.7051
vn -0.3443 -0.9075 0.2406
vn -0.8063 0.5733 -0.1456
vn -0.9877 0.1104 0.1104
vn 0.4794 -0.8401 -0.2536
vn 0.5014 -0.5014 -0.7051
vn 0.4782 0.4782 -0.7367
vn -0.1456 0.5733 -0.8063
vn 0.5014 0.5014 -0.7051
vn 0.1456 0.5733 -0.8063
vn -0.4782 0.4782 -0.7367
vn -0.3443 0.9075 -0.2406
vn -0.6052 -0.6052 -0.5171
vn -0.3443 -0.9075 -0.2406
vn -0.7367 0.4782 -0.4782
vn -0.6052 0.6052 0.5171
vn -0.3443 0.9075 0.2406
vn -0.4782 0.4782 0.7367
vn 0.4620 0.6271 0.6271
vn 0.4620 0.6271 -0.6271
vn 0.7367 0.4782 0.4782
usemtl Material
s off
f 98//1 30//1 3//1 44//1
f 97//2 50//2 7//2 37//2
f 96//3 35//3 6//3 31//3
f 95//4 37//4 7//4 33//4
f 94//5 38//5 8//5 34//5
f 93//6 28//6 4//6 46//6
f 92//7 51//7 16//7 34//7
f 91//8 52//8 21//8 53//8
f 90//9 40//9 10//9 54//9
f 89//10 55//10 16//10 46//10
f 88//10 56//10 22//10 57//10
f 87//11 50//11 20//11 58//11
f 86//12 59//12 15//12 45//12
f 85//13 60//13 23//13 61//13
f 84//14 49//14 19//14 62//14
f 83//15 63//15 13//15 43//15
f 82//16 64//16 24//16 65//16
f 81//17 47//17 17//17 66//17
f 80//2 67//2 19//2 49//2
f 79//2 68//2 25//2 69//2
f 78//2 38//2 20//2 70//2
f 77//1 71//1 14//1 32//1
f 76//1 72//1 26//1 73//1
f 75//1 42//1 12//1 74//1
f 72//1 75//1 74//1 26//1
f 9//1 27//1 75//1 72//1
f 27//1 2//1 42//1 75//1
f 40//1 76//1 73//1 10//1
f 1//1 39//1 76//1 40//1
f 39//1 9//1 72//1 76//1
f 28//18 77//18 32//18 4//18
f 10//1 73//1 77//1 28//1
f 73//1 26//1 71//1 77//1
f 68//2 78//2 70//2 25//2
f 18//2 36//2 78//2 68//2
f 36//2 8//2 38//2 78//2
f 47//2 79//2 69//2 17//2
f 5//2 48//2 79//2 47//2
f 48//2 18//2 68//2 79//2
f 35//2 80//2 49//2 6//2
f 17//2 69//2 80//2 35//2
f 69//2 25//2 67//2 80//2
f 64//16 81//16 66//16 24//16
f 11//16 29//16 81//16 64//16
f 29//19 5//19 47//19 81//19
f 39//16 82//16 65//16 9//16
f 1//16 41//16 82//16 39//16
f 41//16 11//16 64//16 82//16
f 27//20 83//20 43//20 2//20
f 9//21 65//21 83//21 27//21
f 65//22 24//22 63//22 83//22
f 60//23 84//23 62//23 23//23
f 13//24 31//24 84//24 60//24
f 31//25 6//25 49//25 84//25
f 42//26 85//26 61//26 12//26
f 2//26 43//26 85//26 42//26
f 43//27 13//27 60//27 85//27
f 30//26 86//26 45//26 3//26
f 12//26 61//26 86//26 30//26
f 61//28 23//28 59//28 86//28
f 56//10 87//10 58//10 22//10
f 15//10 33//10 87//10 56//10
f 33//29 7//29 50//29 87//29
f 44//10 88//10 57//10 14//10
f 3//10 45//10 88//10 44//10
f 45//10 15//10 56//10 88//10
f 32//30 89//30 46//30 4//30
f 14//10 57//10 89//10 32//10
f 57//10 22//10 55//10 89//10
f 52//31 90//31 54//31 21//31
f 11//32 41//32 90//32 52//32
f 41//9 1//9 40//9 90//9
f 48//33 91//33 53//33 18//33
f 5//34 29//34 91//34 48//34
f 29//35 11//35 52//35 91//35
f 36//36 92//36 34//36 8//36
f 18//37 53//37 92//37 36//37
f 53//38 21//38 51//38 92//38
f 51//39 93//39 46//39 16//39
f 21//40 54//40 93//40 51//40
f 54//9 10//9 28//9 93//9
f 55//10 94//10 34//10 16//10
f 22//10 58//10 94//10 55//10
f 58//41 20//41 38//41 94//41
f 59//42 95//42 33//42 15//42
f 23//43 62//43 95//43 59//43
f 62//44 19//44 37//44 95//44
f 63//45 96//45 31//45 13//45
f 24//46 66//46 96//46 63//46
f 66//47 17//47 35//47 96//47
f 67//2 97//2 37//2 19//2
f 25//2 70//2 97//2 67//2
f 70//2 20//2 50//2 97//2
f 71//1 98//1 44//1 14//1
f 26//1 74//1 98//1 71//1
f 74//1 12//1 30//1 98//1
